<?xml version="1.0" standalone="no"?><svg xmlns:xlink="http://www.w3.org/1999/xlink" xmlns="http://www.w3.org/2000/svg" viewBox="0 0 1000 636.3655796928673" preserveAspectRatio="xMaxYMax slice"><g transform="scale(1.6443555030823445)"><rect x="0" y="0" width="608.1428571428571" height="387" fill="#000000"/><g transform="translate(110.57,0) scale(2.7645) rotate(0)"><path d="M13 0H20V7L7 20H0V13L13 0Z" fill="#2c0051"/></g><rect x="165.85714285714286" y="0" width="55.285714285714285" height="55.285714285714285" fill="#000000"/><rect x="331.7142857142857" y="0" width="55.285714285714285" height="55.285714285714285" fill="#000000"/><g transform="translate(331.71,0) scale(1.3820000000000001) rotate(0)"><path d="M10 0L20 10L10 20L0 10L10 0Z" fill="#8b4500"/></g><rect x="442.2857142857143" y="0" width="55.285714285714285" height="55.285714285714285" fill="#000000"/><g transform="translate(442.29,0) scale(1.3820000000000001) rotate(0)"><path d="M10 0L20 10L10 20L0 10L10 0Z" fill="#6900be"/></g><g transform="translate(442.29,27.64) scale(1.3820000000000001) rotate(0)"><path d="M10 0H20V10L10 20H0V10L10 0Z" fill="#5f2f00"/></g><g transform="translate(497.57,0) scale(2.7645) rotate(0)"><path d="M10 0H20V10L10 20H0V10L10 0Z" fill="#540099"/></g><g transform="translate(165.86,55.29) scale(2.7645) rotate(0)"><path d="M10 0H20V10L10 20H0V10L10 0Z" fill="#43007b"/></g><g transform="translate(221.14,55.29) scale(2.7645) rotate(0)"><path d="M13 0H20V7L7 20H0V13L13 0Z" fill="#a04f00"/></g><rect x="442.2857142857143" y="55.285714285714285" width="55.285714285714285" height="55.285714285714285" fill="#000000"/><g transform="translate(497.57,55.29) scale(2.7645) rotate(0)"><path d="M13 0H20V7L7 20H0V13L13 0Z" fill="#482400"/></g><g transform="translate(221.14,110.57) scale(2.7645) rotate(0)"><path d="M10 0H20V10L10 20H0V10L10 0Z" fill="#05000a"/></g><rect x="442.2857142857143" y="110.57142857142857" width="55.285714285714285" height="55.285714285714285" fill="#000000"/><g transform="translate(552.86,110.57) scale(2.7645) rotate(0)"><path d="M13 0H20V7L7 20H0V13L13 0Z" fill="#33005d"/></g><g transform="translate(165.86,165.86) scale(2.7645) rotate(0)"><path d="M10 0L20 10L10 20L0 10L10 0Z" fill="#c66200"/></g><rect x="276.42857142857144" y="165.85714285714286" width="55.285714285714285" height="55.285714285714285" fill="#000000"/><g transform="translate(276.43,165.86) scale(1.3820000000000001) rotate(0)"><path d="M10 0L20 10L10 20L0 10L10 0Z" fill="#270047"/></g><g transform="translate(276.43,193.5) scale(1.3820000000000001) rotate(0)"><path d="M10 0H20V10L10 20H0V10L10 0Z" fill="#f97b00"/></g><rect x="0" y="221.14285714285714" width="55.285714285714285" height="55.285714285714285" fill="#000000"/><g transform="translate(0,248.79) scale(1.3820000000000001) rotate(0)"><path d="M10 0L20 10L10 20L0 10L10 0Z" fill="#4d2600"/></g><g transform="translate(27.64,248.79) scale(1.3820000000000001) rotate(0)"><path d="M13 0H20V7L7 20H0V13L13 0Z" fill="#130023"/></g><rect x="110.57142857142857" y="221.14285714285714" width="55.285714285714285" height="55.285714285714285" fill="#000000"/><g transform="translate(110.57,221.14) scale(1.3820000000000001) rotate(0)"><path d="M10 0H20V10L10 20H0V10L10 0Z" fill="#ce6600"/></g><g transform="translate(138.21,221.14) scale(1.3820000000000001) rotate(0)"><path d="M10 0L20 10L10 20L0 10L10 0Z" fill="#d96b00"/></g><g transform="translate(110.57,248.79) scale(1.3820000000000001) rotate(0)"><path d="M10 0H20V10L10 20H0V10L10 0Z" fill="#6900bf"/></g><g transform="translate(138.21,248.79) scale(1.3820000000000001) rotate(0)"><path d="M10 0L20 10L10 20L0 10L10 0Z" fill="#a85300"/></g><g transform="translate(331.71,221.14) scale(2.7645) rotate(0)"><path d="M10 0H20V10L10 20H0V10L10 0Z" fill="#ed7500"/></g><g transform="translate(442.29,221.14) scale(2.7645) rotate(0)"><path d="M10 0L20 10L10 20L0 10L10 0Z" fill="#2e0054"/></g><rect x="497.57142857142856" y="221.14285714285714" width="55.285714285714285" height="55.285714285714285" fill="#000000"/><g transform="translate(497.57,221.14) scale(1.3820000000000001) rotate(0)"><path d="M10 0H20V10L10 20H0V10L10 0Z" fill="#753a00"/></g><g transform="translate(525.21,221.14) scale(1.3820000000000001) rotate(0)"><path d="M13 0H20V7L7 20H0V13L13 0Z" fill="#29004b"/></g><g transform="translate(497.57,248.79) scale(1.3820000000000001) rotate(0)"><path d="M13 0H20V7L7 20H0V13L13 0Z" fill="#23003f"/></g><rect x="55.285714285714285" y="276.42857142857144" width="55.285714285714285" height="55.285714285714285" fill="#000000"/><g transform="translate(55.29,276.43) scale(1.3820000000000001) rotate(0)"><path d="M10 0L20 10L10 20L0 10L10 0Z" fill="#6900c0"/></g><g transform="translate(82.93,276.43) scale(1.3820000000000001) rotate(0)"><path d="M13 0H20V7L7 20H0V13L13 0Z" fill="#753a00"/></g><rect x="165.85714285714286" y="276.42857142857144" width="55.285714285714285" height="55.285714285714285" fill="#000000"/><g transform="translate(276.43,276.43) scale(2.7645) rotate(0)"><path d="M10 0H20V10L10 20H0V10L10 0Z" fill="#6b00c3"/></g><g transform="translate(331.71,276.43) scale(2.7645) rotate(0)"><path d="M10 0L20 10L10 20L0 10L10 0Z" fill="#fa7c00"/></g><rect x="442.2857142857143" y="276.42857142857144" width="55.285714285714285" height="55.285714285714285" fill="#000000"/><g transform="translate(442.29,276.43) scale(1.3820000000000001) rotate(0)"><path d="M10 0H20V10L10 20H0V10L10 0Z" fill="#703700"/></g><g transform="translate(469.93,276.43) scale(1.3820000000000001) rotate(0)"><path d="M13 0H20V7L7 20H0V13L13 0Z" fill="#d86b00"/></g><g transform="translate(442.29,304.07) scale(1.3820000000000001) rotate(0)"><path d="M10 0L20 10L10 20L0 10L10 0Z" fill="#5900a2"/></g><rect x="497.57142857142856" y="276.42857142857144" width="55.285714285714285" height="55.285714285714285" fill="#000000"/><g transform="translate(525.21,276.43) scale(1.3820000000000001) rotate(0)"><path d="M13 0H20V7L7 20H0V13L13 0Z" fill="#410077"/></g><rect x="165.85714285714286" y="331.7142857142857" width="55.285714285714285" height="55.285714285714285" fill="#000000"/><g transform="translate(165.86,331.71) scale(1.3820000000000001) rotate(0)"><path d="M13 0H20V7L7 20H0V13L13 0Z" fill="#050200"/></g><g transform="translate(193.5,331.71) scale(1.3820000000000001) rotate(0)"><path d="M10 0H20V10L10 20H0V10L10 0Z" fill="#e77200"/></g><rect x="221.14285714285714" y="331.7142857142857" width="55.285714285714285" height="55.285714285714285" fill="#000000"/></g></svg>